<svg width="18" height="18" viewBox="0 0 18 18" fill="none" xmlns="http://www.w3.org/2000/svg">
<path d="M17.0377 8.08313C17.7571 8.24749 17.7571 9.27227 17.0377 9.43663L11.6662 10.6638C11.4063 10.7231 11.2034 10.9261 11.144 11.1859L9.91687 16.5575C9.75251 17.2769 8.72773 17.2769 8.56337 16.5575L7.33622 11.1859C7.27685 10.9261 7.07393 10.7231 6.81407 10.6638L1.44254 9.43663C0.723098 9.27227 0.7231 8.24749 1.44254 8.08313L6.81408 6.85597C7.07394 6.79661 7.27685 6.59369 7.33622 6.33383L8.56337 0.962293C8.72773 0.242854 9.75251 0.242856 9.91687 0.962294L11.144 6.33383C11.2034 6.59369 11.4063 6.79661 11.6662 6.85597L17.0377 8.08313Z" fill="white" fill-opacity="0.29"/>
</svg>
