<svg width="26" height="25" viewBox="0 0 26 25" fill="none" xmlns="http://www.w3.org/2000/svg">
<path d="M12.5479 1.5625C6.50781 1.5625 1.61035 6.45996 1.61035 12.5C1.61035 18.54 6.50781 23.4375 12.5479 23.4375C18.5879 23.4375 23.4854 18.54 23.4854 12.5C23.4854 6.45996 18.5879 1.5625 12.5479 1.5625ZM18.7979 7.75635L17.8018 8.71094C17.7139 8.77685 17.6724 8.88428 17.6895 8.98926V16.0132C17.6724 16.1206 17.7139 16.228 17.8018 16.2915L18.7783 17.2461V17.4585H13.876V17.2559L14.8843 16.2769C14.9844 16.1768 14.9844 16.1475 14.9844 15.9985V10.3149L12.1768 17.4341H11.7983L8.53174 10.3149V15.0879C8.50244 15.2881 8.57324 15.4907 8.71484 15.6348L10.0283 17.2241V17.4365H6.29785V17.2241L7.61133 15.6348C7.68053 15.5633 7.73203 15.4766 7.76171 15.3816C7.79139 15.2867 7.79841 15.1861 7.78223 15.0879V9.57031C7.79932 9.4165 7.74072 9.26758 7.62353 9.1626L6.45654 7.75635V7.54395H10.082L12.8799 13.6841L15.3433 7.54883H18.7979V7.75635Z" fill="white"/>
</svg>
