<svg width="22" height="17" viewBox="0 0 22 17" fill="none" xmlns="http://www.w3.org/2000/svg">
<g clip-path="url(#clip0_0_393)">
<path d="M17.9892 1.53549C16.5965 0.883856 15.1231 0.420844 13.608 0.158691C13.4193 0.499883 13.1988 0.958787 13.0467 1.32387C11.4132 1.07824 9.79467 1.07824 8.19116 1.32387C8.03919 0.95887 7.81372 0.499883 7.62326 0.158691C6.10668 0.420965 4.63206 0.885156 3.2387 1.53889C0.466032 5.72883 -0.285618 9.81459 0.0901657 13.8425C1.92918 15.2158 3.71138 16.0501 5.46354 16.596C5.899 15.9972 6.28393 15.3632 6.61437 14.7006C5.98526 14.4611 5.37878 14.1659 4.80214 13.8186C4.95389 13.7062 5.10207 13.5889 5.24645 13.4672C8.74066 15.1015 12.5373 15.1015 15.9899 13.4672C16.1349 13.5881 16.283 13.7053 16.4341 13.8186C15.8565 14.1669 15.2489 14.4626 14.6186 14.7023C14.9509 15.3676 15.3351 16.0022 15.7694 16.5977C17.5232 16.0519 19.3071 15.2176 21.1461 13.8425C21.5871 9.17319 20.3929 5.12484 17.9892 1.5354V1.53549ZM7.09044 11.3654C6.04148 11.3654 5.18125 10.3861 5.18125 9.19368C5.18125 8.00121 6.02315 7.02027 7.09044 7.02027C8.15782 7.02027 9.01797 7.99946 8.99964 9.19368C9.0013 10.3861 8.15782 11.3654 7.09044 11.3654ZM14.1458 11.3654C13.0968 11.3654 12.2367 10.3861 12.2367 9.19368C12.2367 8.00121 13.0785 7.02027 14.1458 7.02027C15.2132 7.02027 16.0733 7.99946 16.055 9.19368C16.055 10.3861 15.2132 11.3654 14.1458 11.3654Z" fill="white"/>
</g>
<defs>
<clipPath id="clip0_0_393">
<rect width="21.2363" height="16.5079" fill="white" transform="translate(0 0.15918)"/>
</clipPath>
</defs>
</svg>
