<svg width="23" height="18" viewBox="0 0 23 18" fill="none" xmlns="http://www.w3.org/2000/svg">
<g clip-path="url(#clip0_0_395)">
<path d="M22.2842 2.19138C21.4586 2.55713 20.5828 2.79721 19.6861 2.90363C20.6202 2.34382 21.3373 1.45735 21.675 0.401116C20.7871 0.928013 19.8157 1.29924 18.8027 1.49877C17.9775 0.6197 16.802 0.0703125 15.5009 0.0703125C13.0028 0.0703125 10.9774 2.09561 10.9774 4.59357C10.9774 4.94814 11.0175 5.29333 11.0945 5.62447C7.33522 5.43578 4.0022 3.635 1.77115 0.898313C1.38187 1.56638 1.15881 2.34348 1.15881 3.17234C1.15881 4.7417 1.95744 6.12615 3.1711 6.93736C2.45278 6.91486 1.75026 6.72085 1.1222 6.37152C1.12195 6.39047 1.12195 6.40941 1.12195 6.42845C1.12195 8.62005 2.68114 10.4483 4.75037 10.8639C4.08427 11.045 3.38558 11.0715 2.70767 10.9414C3.28324 12.7384 4.95379 14.0461 6.9331 14.0828C5.38502 15.2959 3.43456 16.0191 1.31538 16.0191C0.950213 16.0191 0.590213 15.9976 0.236328 15.9559C2.23812 17.2393 4.61575 17.9881 7.1702 17.9881C15.4904 17.9881 20.0401 11.0955 20.0401 5.11815C20.0401 4.92196 20.0358 4.72689 20.027 4.53293C20.9126 3.89276 21.6769 3.09984 22.2842 2.19138Z" fill="white"/>
</g>
<defs>
<clipPath id="clip0_0_395">
<rect width="22.0478" height="18" fill="white" transform="translate(0.236328)"/>
</clipPath>
</defs>
</svg>
